<?xml version="1.0" encoding="utf-8"?>
<!-- Generator: Adobe Illustrator 24.0.2, SVG Export Plug-In . SVG Version: 6.00 Build 0)  -->
<svg version="1.1" id="Layer_1" xmlns="http://www.w3.org/2000/svg" xmlns:xlink="http://www.w3.org/1999/xlink" x="0px" y="0px"
	 viewBox="0 0 792 792" style="enable-background:new 0 0 792 792;" xml:space="preserve">
<style type="text/css">
	.st0{fill:#FFFFFF;}
</style>
<image style="display:none;overflow:visible;" width="1043" height="1043" xlink:href="123.png"  transform="matrix(0.9604 0 0 0.9604 -86.1216 -88.12)">
</image>
<path class="st0" d="M134.1,458.3c25.3-14.8,52.8-31.2,66.4-38.2c0,0,0,0,0,0c0-1.8,0.2-89,109.3-156.6c0.1,0,0-0.1,0-0.1
	C235.5,284.6,149.4,346.2,134.1,458.3C134,458.3,134,458.3,134.1,458.3z"/>
<path class="st0" d="M237.2,408.6l87.6,0.4c0.2,0,0.3-0.2,0.2-0.3c-1.6-2.8-13.3-24.1-9.2-39.7c0-0.2-0.1-0.3-0.3-0.2
	c-4.1,2.7-7,8.5-9.6,13.6c-0.1,0.1-0.2,0.2-0.3,0.1c-1.5-1.5-10.1-11.7,2.3-42.7c0-0.1-0.1-0.2-0.2-0.2c-1.6,0.6-9.6,3.7-19.6,13.2
	c-0.1,0.1-0.3,0-0.3-0.1c7.9-35.3,80.7-94.1,177.9-116.3c0.2,0,0.1-0.3-0.1-0.3c-127.1,19-208.9,70.5-228.5,172.3
	C237.1,408.5,237.1,408.6,237.2,408.6z"/>
<path class="st0" d="M122.9,540.2l94.6-68.7h41.1c0.6,0,1.2,0.5,1.2,1.2l1.1,65.8c0,0.7-0.5,1.2-1.2,1.2l-43.5,1.1l-16.4-14.7
	l29.4-1.2v-27.8c0-2.1-2.4-3.4-4.2-2.2l-63.4,45.2H122.9z"/>
<path class="st0" d="M271.5,473.1l0.6,65.5c0,0.9,0.7,1.6,1.6,1.6h84.6c0.1,0,0.2,0,0.2-0.1l19.4-13.3c0.3-0.2,0.2-0.7-0.2-0.7
	l-72.7-0.6l-1.4,0c-0.2,0-0.4-0.2-0.4-0.4v-52c0-0.9-0.7-1.6-1.6-1.6h-28.5C272.2,471.5,271.5,472.2,271.5,473.1z"/>
<path class="st0" d="M389,540.2l0.6-68c0-0.4,0.3-0.6,0.6-0.6h115c0.4,0,0.6,0.3,0.6,0.6l0.6,42.8c0,0.4-0.3,0.7-0.6,0.7h-73.3
	c-0.4,0-0.7-0.3-0.6-0.7l0.5-15.1c0-0.3,0.3-0.6,0.7-0.6l41.7,0.6l-1.2-12.3l-53.4-0.6l1.2,53.4c0,0.4-0.3,0.7-0.6,0.7h-31
	C389.3,540.8,389,540.5,389,540.2z"/>
<path class="st0" d="M517,472.7l0.6,66.3c0,0.7,0.5,1.2,1.2,1.2h27.6c0.7,0,1.2-0.5,1.2-1.2l0.6-23.5l57-0.6v23.5
	c0,0.7,0.5,1.2,1.2,1.2l29.9,1.1c0.7,0,1.3-0.5,1.3-1.2l-0.6-66.8c0-0.7-0.5-1.2-1.2-1.2h-28.7c-0.7,0-1.2,0.6-1.2,1.2l0.6,22.8
	h-58.1l-0.6-22.9c0-0.7-0.6-1.2-1.2-1.2h-28.1C517.5,471.5,517,472.1,517,472.7z"/>
<path class="st0" d="M646.8,542l95.7-72.2l40.7,0.6c0.9,0,1.6,0.7,1.6,1.6l-0.6,68.4c0,0.9-0.8,1.6-1.7,1.6l-43-1.1l-15.3-16.4
	l28.2,0.6l-0.6-32.3l-65.2,48.2L646.8,542z"/>
<path class="st0" d="M148.7,587.7l-0.5,37.6c0,1.1,0.8,1.9,1.9,1.9h89.7l0.6,10h-86.1c-0.8,0-1.2,1.1-0.5,1.6l19.1,14.3l96.2,1.1
	c2.3,0,4.2-1.9,4.2-4.2v-34c0-2.3-1.8-4.1-4.1-4.1l-89.9-0.6l0.6-11.7h85.9c1.1,0,1.5-1.4,0.6-2l-20.1-14.5l-94.1,1.1
	C150.3,584.3,148.7,585.8,148.7,587.7z"/>
<path class="st0" d="M382.9,639.5h-29.8v-38.8h46.3c1,0,1.8-0.8,1.8-1.8v-13.4c0-1-0.8-1.8-1.8-1.8l-114.4,0.6c-1,0-1.8,0.8-1.8,1.8
	v11.6c0,1,0.8,1.8,1.8,1.8h35.2l-2.3,61.3c-0.1,1.5,1.1,2.7,2.6,2.7l12,0c1.2,0,2.3-0.3,3.4-0.8L383,640
	C383.3,639.9,383.2,639.5,382.9,639.5z"/>
<path class="st0" d="M418.6,583.7l111.1-0.5c3.4,0,6.2,2.7,6.2,6.1l0.5,58.1c0,3.4-2.8,6.3-6.2,6.2l-112-0.5c-3.4,0-6.2-2.8-6.2-6.2
	l0.5-57C412.4,586.4,415.2,583.7,418.6,583.7z M444.1,605.6l-0.4,26.5c0,2.8,2.2,5,5,5h49.9c2.7,0,5-2.2,5-5v-27c0-2.8-2.3-5-5-5
	l-49.5,0.5C446.3,600.7,444.1,602.9,444.1,605.6z"/>
<path class="st0" d="M546.9,585.9v66c0,1.2,1,2.3,2.3,2.3h26.6c1.2,0,2.2-1,2.3-2.2l0.5-50.2c0-1.2,1-2.2,2.3-2.2h44.2v15.6
	c0,0.6,0.7,1.1,1.2,0.8l29.3-14.6v-15.4c0-1.2-1-2.3-2.3-2.3H549.2C548,583.7,546.9,584.7,546.9,585.9z"/>
<path class="st0" d="M667.3,584.5l-0.6,68.3c0,0.4,0.3,0.8,0.8,0.8l115.3,0.6c0.4,0,0.8-0.3,0.8-0.8l0.5-14.9c0-0.4-0.3-0.8-0.8-0.8
	l-83.8,0.6v-11.2h83.8c0.4,0,0.8-0.4,0.8-0.8v-14.9c0-0.4-0.4-0.8-0.8-0.8h-83.8v-10.6H784c0.4,0,0.8-0.4,0.8-0.8l-0.5-13.7
	c0-0.4-0.4-0.7-0.8-0.8l-115.3-1.2C667.7,583.7,667.3,584,667.3,584.5z"/>
<path class="st0" d="M262.6,95.8c38.5,2.3,67.5,17.3,85.2,33.2c15.9,21.1,29.7,23.2,37.6,24.4c7.9,1.2,32,3.8,69.6,10.6
	c37.6,6.8,42.3,32,42.9,41.1c0.6,9.1-5.9,17-5.9,17C56.7,226.4,75.8,514.3,78,601.9c-37.4-78-41.4-121.1-43.2-125.5
	c-6.2,3.1-15.9,27.3-20.3,36.1c-8.4-95,32.2-174.4,31.3-179.7c-6.2,5.3-22.9,22-26.9,26.4c22-82.8,73.6-124.8,73.6-124.8
	s-8.8-8.2-44,21.1c0,0,0,0,0,0c19-36.4,49.1-59.4,65.3-69.8c4.8-3.1,9.9-5.4,15.2-7.4c5.5-2,14.3-8.6,13.5-30.2c0,0,0,0,0,0
	c12.9-95.1,67-138.3,67-138.3C207.4,43.3,221.5,76.2,262.6,95.8z M334.2,143.4c0,0-36-35.5-53.8-21.4c-1.9,1.5-2.3,4.3-0.9,6.2
	C287.1,138.7,334.2,143.4,334.2,143.4z M200.7,74c-27.3,32.6-26,62.8-26,62.8c15.7-11.3,31.4-21,47.1-28.9
	C221.9,108,197.8,90.8,200.7,74z"/>
</svg>
